<svg xmlns="http://www.w3.org/2000/svg" aria-hidden="true" style="position:absolute;width:0;height:0;overflow:hidden"><defs>
<symbol id="close-black-18dp-2-1" viewBox="0 0 8 8"><path d="M8 .806 7.194 0 4 3.194.806 0 0 .806 3.194 4 0 7.194.806 8 4 4.806 7.194 8 8 7.194 4.806 4 8 .806z"/></symbol><symbol id="close" viewBox="0 0 8 8"><path fill="#e7e9fc" d="M8 4a4 4 0 1 1-8 0 4 4 0 0 1 8 0z" style="fill:var(--color1, #e7e9fc)"/><path fill="none" stroke="#000" stroke-width=".333" d="M7.833 4A3.833 3.833 0 1 1 .167 4a3.833 3.833 0 0 1 7.666 0z" style="stroke:var(--color2, #000)"/><path d="m5.333 2.935-.269-.269-1.065 1.065-1.065-1.065-.269.269L3.73 4 2.665 5.065l.269.269 1.065-1.065 1.065 1.065.269-.269L4.268 4l1.065-1.065z" style="fill:var(--color2, #000)"/></symbol></defs></svg>